<svg width="12" height="13" viewBox="0 0 12 13" fill="none" xmlns="http://www.w3.org/2000/svg">
<path d="M6.00008 0.666748C4.84636 0.666748 3.71854 1.00887 2.75926 1.64984C1.79997 2.29082 1.0523 3.20186 0.610787 4.26776C0.169276 5.33366 0.0537561 6.50655 0.278837 7.63811C0.503917 8.76966 1.05949 9.80906 1.87529 10.6249C2.6911 11.4407 3.7305 11.9962 4.86206 12.2213C5.99361 12.4464 7.1665 12.3309 8.2324 11.8894C9.29831 11.4479 10.2093 10.7002 10.8503 9.74091C11.4913 8.78162 11.8334 7.65381 11.8334 6.50008C11.8334 5.73404 11.6825 4.97549 11.3894 4.26776C11.0962 3.56003 10.6665 2.91697 10.1249 2.37529C9.5832 1.83362 8.94014 1.40394 8.2324 1.11078C7.52467 0.817632 6.76613 0.666748 6.00008 0.666748ZM7.58092 7.25258C7.63559 7.30681 7.67899 7.37133 7.7086 7.44241C7.73822 7.5135 7.75347 7.58974 7.75347 7.66675C7.75347 7.74375 7.73822 7.82 7.7086 7.89108C7.67899 7.96217 7.63559 8.02669 7.58092 8.08091C7.52669 8.13559 7.46217 8.17899 7.39109 8.2086C7.32 8.23822 7.24376 8.25346 7.16675 8.25346C7.08974 8.25346 7.0135 8.23822 6.94241 8.2086C6.87133 8.17899 6.80681 8.13559 6.75258 8.08091L6.00008 7.32258L5.24758 8.08091C5.19336 8.13559 5.12884 8.17899 5.05775 8.2086C4.98667 8.23822 4.91042 8.25346 4.83342 8.25346C4.75641 8.25346 4.68017 8.23822 4.60908 8.2086C4.538 8.17899 4.47348 8.13559 4.41925 8.08091C4.36458 8.02669 4.32118 7.96217 4.29156 7.89108C4.26195 7.82 4.2467 7.74375 4.2467 7.66675C4.2467 7.58974 4.26195 7.5135 4.29156 7.44241C4.32118 7.37133 4.36458 7.30681 4.41925 7.25258L5.17758 6.50008L4.41925 5.74758C4.30941 5.63774 4.2477 5.48876 4.2477 5.33341C4.2477 5.17807 4.30941 5.02909 4.41925 4.91925C4.52909 4.8094 4.67807 4.74769 4.83342 4.74769C4.98876 4.74769 5.13774 4.8094 5.24758 4.91925L6.00008 5.67758L6.75258 4.91925C6.86243 4.8094 7.01141 4.74769 7.16675 4.74769C7.32209 4.74769 7.47107 4.8094 7.58092 4.91925C7.69076 5.02909 7.75247 5.17807 7.75247 5.33341C7.75247 5.48876 7.69076 5.63774 7.58092 5.74758L6.82258 6.50008L7.58092 7.25258Z" fill="#E04336"/>
</svg>
