<svg width="12" height="13" viewBox="0 0 12 13" fill="none" xmlns="http://www.w3.org/2000/svg">
<path fill-rule="evenodd" clip-rule="evenodd" d="M6.00012 0.616699C2.75087 0.616699 0.116699 3.25087 0.116699 6.50012C0.116699 9.74937 2.75087 12.3835 6.00012 12.3835C9.24937 12.3835 11.8835 9.74937 11.8835 6.50012C11.8835 3.25087 9.24937 0.616699 6.00012 0.616699ZM8.55032 5.50529C8.59727 5.45161 8.63302 5.38908 8.65546 5.32139C8.6779 5.25369 8.68657 5.18219 8.68097 5.11109C8.67536 5.03999 8.6556 4.97073 8.62283 4.90739C8.59006 4.84404 8.54496 4.78789 8.49017 4.74223C8.43538 4.69657 8.37202 4.66233 8.3038 4.64153C8.23558 4.62072 8.1639 4.61377 8.09295 4.62108C8.02201 4.62839 7.95324 4.64981 7.8907 4.68409C7.82816 4.71836 7.77311 4.7648 7.72878 4.82067L5.42889 7.58L4.23884 6.38941C4.13796 6.29198 4.00286 6.23807 3.86262 6.23928C3.72238 6.2405 3.58823 6.29675 3.48907 6.39592C3.3899 6.49509 3.33365 6.62924 3.33243 6.76947C3.33121 6.90971 3.38512 7.04482 3.48255 7.14569L5.08712 8.75026C5.13967 8.80278 5.20259 8.84378 5.27187 8.87064C5.34114 8.89749 5.41525 8.90962 5.48948 8.90625C5.5637 8.90288 5.63641 8.88408 5.70296 8.85106C5.76952 8.81803 5.82846 8.7715 5.87603 8.71443L8.55032 5.50529Z" fill="#03A900"/>
</svg>
